<?xml version="1.0" standalone="no"?>
<!DOCTYPE svg PUBLIC "-//W3C//DTD SVG 20010904//EN"
 "http://www.w3.org/TR/2001/REC-SVG-20010904/DTD/svg10.dtd">
<svg version="1.0" xmlns="http://www.w3.org/2000/svg"
 width="50.000000pt" height="50.000000pt" viewBox="0 0 50.000000 50.000000"
 preserveAspectRatio="xMidYMid meet">

<g transform="translate(0.000000,50.000000) scale(0.100000,-0.100000)"
fill="#000000" stroke="none">
<path d="M295 466 c-11 -8 -16 -20 -12 -30 5 -12 1 -16 -18 -16 -34 0 -49 -30
-27 -53 16 -18 16 -20 0 -31 -25 -18 -12 -56 18 -56 19 0 24 -5 24 -24 0 -30
28 -39 53 -17 17 14 20 14 31 -1 20 -27 57 -12 54 21 -2 21 1 25 16 23 11 -2
26 4 33 14 11 15 10 21 -4 37 -17 18 -17 19 0 32 25 18 6 56 -26 52 -17 -1
-21 2 -19 17 2 11 -4 26 -14 33 -15 11 -21 10 -36 -4 -17 -15 -19 -15 -36 0
-16 14 -21 15 -37 3z m35 -28 c16 -10 24 -10 40 0 27 17 32 15 25 -7 -7 -22
18 -46 40 -37 17 6 21 -9 5 -19 -5 -3 -10 -17 -10 -31 0 -13 5 -24 10 -24 6 0
10 -5 10 -11 0 -6 -8 -8 -19 -4 -22 7 -46 -18 -37 -40 7 -18 2 -19 -24 -3 -16
10 -24 10 -40 0 -25 -15 -33 -15 -27 1 6 17 -22 47 -39 40 -17 -6 -18 1 -2 27
10 16 10 24 0 40 -17 27 -15 32 7 25 21 -6 42 20 34 43 -6 15 2 15 27 0z"/>
<path d="M316 384 c-31 -30 -9 -84 34 -84 24 0 50 26 50 50 0 24 -26 50 -50
50 -10 0 -26 -7 -34 -16z m59 -34 c0 -18 -6 -26 -23 -28 -13 -2 -25 3 -28 12
-10 26 4 48 28 44 17 -2 23 -10 23 -28z"/>
<path d="M130 282 c0 -27 -9 -32 -31 -19 -27 17 -56 -12 -40 -41 12 -22 6 -32
-21 -32 -13 0 -18 -8 -18 -30 0 -22 5 -30 18 -30 27 0 32 -9 19 -31 -17 -27
12 -56 41 -40 22 12 32 6 32 -21 0 -29 48 -24 60 7 9 22 12 24 30 13 28 -18
57 10 41 40 -12 22 -6 32 21 32 13 0 18 8 18 30 0 22 -5 30 -18 30 -27 0 -33
10 -21 32 16 29 -13 58 -40 41 -22 -13 -31 -8 -31 19 0 13 -8 18 -30 18 -22 0
-30 -5 -30 -18z m40 -17 c0 -21 38 -39 54 -26 16 13 29 2 16 -14 -14 -17 0
-55 21 -55 11 0 19 -4 19 -10 0 -5 -7 -10 -15 -10 -21 0 -39 -38 -26 -54 13
-16 2 -29 -14 -16 -17 14 -55 0 -55 -21 0 -11 -4 -19 -10 -19 -5 0 -10 7 -10
15 0 21 -38 39 -54 26 -17 -14 -29 -2 -15 15 13 16 -5 54 -26 54 -8 0 -15 5
-15 10 0 6 7 10 15 10 21 0 39 38 26 54 -13 16 -2 29 14 16 17 -14 55 0 55 21
0 11 5 19 10 19 6 0 10 -7 10 -15z"/>
<path d="M126 194 c-31 -30 -9 -84 34 -84 24 0 50 26 50 50 0 24 -26 50 -50
50 -10 0 -26 -7 -34 -16z m59 -34 c0 -18 -6 -26 -23 -28 -13 -2 -25 3 -28 12
-10 26 4 48 28 44 17 -2 23 -10 23 -28z"/>
</g>
</svg>
