<?xml version="1.0" standalone="no"?>
<!DOCTYPE svg PUBLIC "-//W3C//DTD SVG 20010904//EN"
 "http://www.w3.org/TR/2001/REC-SVG-20010904/DTD/svg10.dtd">
<svg version="1.0" xmlns="http://www.w3.org/2000/svg"
 width="50.000000pt" height="50.000000pt" viewBox="0 0 50.000000 50.000000"
 preserveAspectRatio="xMidYMid meet">

<g transform="translate(0.000000,50.000000) scale(0.100000,-0.100000)"
fill="#000000" stroke="none">
<path d="M115 411 c-87 -40 -115 -99 -115 -241 l0 -100 173 0 c146 0 178 3
212 19 87 40 115 99 115 241 l0 100 -172 0 c-147 0 -179 -3 -213 -19z m365
-90 c0 -129 -23 -174 -105 -212 -33 -16 -66 -19 -197 -19 l-158 0 0 90 c0 55
6 104 14 124 15 36 72 87 108 98 13 3 94 6 181 7 l157 1 0 -89z"/>
<path d="M80 250 l0 -60 40 0 c22 0 40 5 40 10 0 6 -13 10 -30 10 -20 0 -30 5
-30 15 0 9 9 15 25 15 14 0 25 5 25 10 0 6 -11 10 -25 10 -16 0 -25 6 -25 15
0 10 10 15 30 15 17 0 30 5 30 10 0 6 -18 10 -40 10 l-40 0 0 -60z"/>
<path d="M197 292 c-22 -24 -21 -65 1 -85 29 -26 82 -19 82 10 0 12 -3 13 -14
3 -8 -6 -25 -10 -38 -8 -19 2 -23 9 -23 38 0 29 4 36 23 38 13 2 30 -2 38 -8
17 -15 19 1 2 18 -18 18 -53 15 -71 -6z"/>
<path d="M328 299 c-26 -15 -25 -85 1 -99 29 -15 56 -12 74 8 48 53 -14 127
-75 91z m68 -24 c4 -8 3 -27 0 -41 -5 -20 -12 -25 -34 -22 -28 3 -40 32 -28
64 7 19 55 18 62 -1z"/>
</g>
</svg>
