<?xml version="1.0" encoding="UTF-8"?>
<svg version="1.1" xmlns="http://www.w3.org/2000/svg" width="50" height="50">
<path d="M0 0 C5.71020462 2.59958732 9.87524483 7.06406322 12.6484375 12.6484375 C14.75112781 19.2623543 14.78174425 27.65487841 11.7578125 33.9765625 C10.00633163 36.84038736 8.24716062 39.35930932 5.5078125 41.3515625 C2.7578125 41.6015625 2.7578125 41.6015625 0.5078125 41.3515625 C0.5078125 39.3515625 0.5078125 39.3515625 2.0078125 37.7265625 C2.5028125 37.2728125 2.9978125 36.8190625 3.5078125 36.3515625 C2.8478125 35.3615625 2.1878125 34.3715625 1.5078125 33.3515625 C1.1778125 33.6815625 0.8478125 34.0115625 0.5078125 34.3515625 C-2.9296875 34.5390625 -2.9296875 34.5390625 -6.4921875 34.3515625 C-8.4921875 32.3515625 -8.4921875 32.3515625 -8.8671875 28.4140625 C-8.77973286 25.57435873 -8.75149947 24.67310934 -6.9296875 22.4140625 C-3.810258 21.05431118 -0.86554025 20.67592334 2.5078125 20.3515625 C2.5078125 19.3615625 2.5078125 18.3715625 2.5078125 17.3515625 C2.1778125 18.0115625 1.8478125 18.6715625 1.5078125 19.3515625 C0.7240625 19.3103125 -0.0596875 19.2690625 -0.8671875 19.2265625 C-3.65334869 19.06427516 -3.65334869 19.06427516 -5.4921875 21.3515625 C-8.1171875 21.4765625 -8.1171875 21.4765625 -10.4921875 21.3515625 C-10.4921875 20.0315625 -10.4921875 18.7115625 -10.4921875 17.3515625 C-9.5021875 17.3515625 -8.5121875 17.3515625 -7.4921875 17.3515625 C-7.1621875 15.7015625 -6.8321875 14.0515625 -6.4921875 12.3515625 C-7.1521875 12.3515625 -7.8121875 12.3515625 -8.4921875 12.3515625 C-7.6171875 4.4765625 -7.6171875 4.4765625 -6.4921875 3.3515625 C-10.4521875 3.3515625 -14.4121875 3.3515625 -18.4921875 3.3515625 C-18.4921875 2.3615625 -18.4921875 1.3715625 -18.4921875 0.3515625 C-13.39253935 -2.19826158 -5.39563362 -1.40387959 0 0 Z M-0.4921875 4.3515625 C-0.4921875 5.0115625 -0.4921875 5.6715625 -0.4921875 6.3515625 C-1.8121875 6.3515625 -3.1321875 6.3515625 -4.4921875 6.3515625 C-4.8221875 7.3415625 -5.1521875 8.3315625 -5.4921875 9.3515625 C-4.5021875 9.8465625 -4.5021875 9.8465625 -3.4921875 10.3515625 C-3.4921875 9.3615625 -3.4921875 8.3715625 -3.4921875 7.3515625 C-2.5021875 7.3515625 -1.5121875 7.3515625 -0.4921875 7.3515625 C-0.4921875 9.3315625 -0.4921875 11.3115625 -0.4921875 13.3515625 C0.1678125 13.3515625 0.8278125 13.3515625 1.5078125 13.3515625 C1.5078125 12.6915625 1.5078125 12.0315625 1.5078125 11.3515625 C2.8278125 11.3515625 4.1478125 11.3515625 5.5078125 11.3515625 C5.5078125 13.0015625 5.5078125 14.6515625 5.5078125 16.3515625 C7.9828125 17.3415625 7.9828125 17.3415625 10.5078125 18.3515625 C9.18300365 12.91984621 6.57349423 9.10688685 2.5078125 5.3515625 C1.5178125 5.0215625 0.5278125 4.6915625 -0.4921875 4.3515625 Z M-1.4921875 13.3515625 C-2.1521875 14.0115625 -2.8121875 14.6715625 -3.4921875 15.3515625 C-2.5021875 15.3515625 -1.5121875 15.3515625 -0.4921875 15.3515625 C-0.8221875 14.6915625 -1.1521875 14.0315625 -1.4921875 13.3515625 Z M7.5078125 20.3515625 C6.8478125 21.0115625 6.1878125 21.6715625 5.5078125 22.3515625 C4.4146875 22.4753125 3.3215625 22.5990625 2.1953125 22.7265625 C-1.86535565 23.41481134 -3.53526281 24.57384537 -6.4921875 27.3515625 C-5.8321875 28.6715625 -5.1721875 29.9915625 -4.4921875 31.3515625 C-1.08119582 31.3515625 2.13869564 30.86010844 5.5078125 30.3515625 C5.8378125 31.6715625 6.1678125 32.9915625 6.5078125 34.3515625 C10.09018705 29.67890004 10.61854886 27.33132613 10.5078125 21.3515625 C9.5178125 21.0215625 8.5278125 20.6915625 7.5078125 20.3515625 Z " fill="#000000" transform="translate(34.4921875,2.6484375)"/>
<path d="M0 0 C-0.020625 0.804375 -0.04125 1.60875 -0.0625 2.4375 C-0.29633621 4.93354885 -0.29633621 4.93354885 1 6 C1.25 8.875 1.25 8.875 1 12 C-0.4375 13.6875 -0.4375 13.6875 -2 15 C-2.33 15.99 -2.66 16.98 -3 18 C0.3 18.33 3.6 18.66 7 19 C6.2575 17.4840625 6.2575 17.4840625 5.5 15.9375 C3.88407686 12.22011812 3.75140203 9.06043343 4 5 C4.99 5 5.98 5 7 5 C7.20625 6.299375 7.4125 7.59875 7.625 8.9375 C9.53816348 17.44639493 14.91595158 24.06704391 22 29 C24.89237001 30.71335171 26.89655191 31.2367816 30.25 31.125 C32.10625 31.063125 32.10625 31.063125 34 31 C35.32 28.69 36.64 26.38 38 24 C38.33 24 38.66 24 39 24 C39.48881162 30.35455103 39.48881162 30.35455103 37.33300781 33.20117188 C34.47337057 35.40604915 33.00106836 35.51469608 29.421875 35.53125 C27.80345703 35.53898437 27.80345703 35.53898437 26.15234375 35.546875 C25.02957031 35.53140625 23.90679688 35.5159375 22.75 35.5 C21.64269531 35.51546875 20.53539062 35.5309375 19.39453125 35.546875 C11.58332762 35.50972302 5.95705 34.41467442 -0.0234375 29.25390625 C-0.46945313 28.69574219 -0.91546875 28.13757813 -1.375 27.5625 C-1.83648438 27.00691406 -2.29796875 26.45132813 -2.7734375 25.87890625 C-5.77660948 21.27850586 -6.27334327 17.3939886 -6.25 11.9375 C-6.25515625 10.72964844 -6.2603125 9.52179687 -6.265625 8.27734375 C-6.01729747 5.21342025 -5.71093586 3.51218399 -4 1 C-2 0 -2 0 0 0 Z M-3 7 C-2 11 -2 11 -2 11 Z M7 19 C8 21 8 21 8 21 Z M-1 21 C0.80412643 24.26460973 1.83394693 25.88929795 5 28 C4.67 25.69 4.34 23.38 4 21 C2.35 21 0.7 21 -1 21 Z M8 21 C7.67 23.97 7.34 26.94 7 30 C10.61136212 31.80568106 11.544531 32.24851563 15.25 32.125 C16.4875 32.08375 17.725 32.0425 19 32 C18.278125 31.29875 17.55625 30.5975 16.8125 29.875 C14.8286838 27.9024876 13.01682261 25.85610734 11.25 23.6875 C10.5075 22.800625 9.765 21.91375 9 21 C8.67 21 8.34 21 8 21 Z " fill="#000000" transform="translate(8,13)"/>
<path d="M0 0 C0.66 0 1.32 0 2 0 C2.061875 0.763125 2.12375 1.52625 2.1875 2.3125 C3.2547656 5.84268623 4.8475042 6.30250226 8 8 C8 8.66 8 9.32 8 10 C5.03 9.505 5.03 9.505 2 9 C2.66 10.98 3.32 12.96 4 15 C2.02 15 0.04 15 -2 15 C-1.34 13.02 -0.68 11.04 0 9 C-1.98 9.33 -3.96 9.66 -6 10 C-5.67 9.01 -5.34 8.02 -5 7 C-4.34 6.71125 -3.68 6.4225 -3 6.125 C-0.70849401 5.1446618 -0.70849401 5.1446618 -0.25 2.375 C-0.1675 1.59125 -0.085 0.8075 0 0 Z " fill="#000000" transform="translate(12,2)"/>
<path d="M0 0 C1.32 0.33 2.64 0.66 4 1 C4 2.32 4 3.64 4 5 C2.68 5 1.36 5 0 5 C0 3.35 0 1.7 0 0 Z " fill="#000000" transform="translate(22,14)"/>
</svg>
