<?xml version="1.0" standalone="no"?>
<!DOCTYPE svg PUBLIC "-//W3C//DTD SVG 20010904//EN"
 "http://www.w3.org/TR/2001/REC-SVG-20010904/DTD/svg10.dtd">
<svg version="1.0" xmlns="http://www.w3.org/2000/svg"
 width="48.000000pt" height="48.000000pt" viewBox="0 0 48.000000 48.000000"
 preserveAspectRatio="xMidYMid meet">

<g transform="translate(0.000000,48.000000) scale(0.100000,-0.100000)"
fill="#000000" stroke="none">
<path d="M168 455 c-11 -13 -31 -26 -44 -29 -15 -4 -26 -16 -29 -34 -4 -15
-13 -42 -20 -59 -13 -29 -13 -37 0 -65 7 -18 16 -45 20 -60 3 -18 14 -30 29
-34 13 -3 33 -16 44 -29 18 -20 28 -23 86 -21 55 2 69 6 81 23 8 11 26 24 40
27 16 4 27 15 30 34 4 15 13 42 20 60 13 28 13 36 0 65 -7 17 -16 44 -20 59
-3 19 -14 30 -30 34 -14 3 -32 16 -40 27 -12 17 -26 21 -81 23 -58 2 -68 -1
-86 -21z m154 -17 c7 -10 25 -22 41 -27 21 -8 27 -17 27 -39 0 -15 7 -38 16
-50 14 -20 14 -24 0 -44 -9 -12 -16 -35 -16 -50 0 -22 -6 -31 -27 -39 -16 -5
-34 -17 -41 -27 -18 -24 -130 -25 -143 -1 -5 9 -22 22 -39 27 -24 9 -30 17
-30 39 0 16 -7 39 -16 51 -14 20 -14 24 0 44 9 12 16 35 16 51 0 22 6 30 30
39 17 5 34 18 39 27 13 24 125 23 143 -1z"/>
<path d="M281 315 c-42 -58 -48 -61 -77 -34 -13 12 -27 19 -31 15 -7 -7 54
-65 67 -65 6 0 90 114 90 123 0 17 -20 1 -49 -39z"/>
<path d="M110 105 c-11 -26 -20 -49 -20 -51 0 -2 18 -4 40 -4 31 0 43 -5 56
-25 26 -40 27 -39 71 73 3 6 1 12 -4 12 -6 0 -18 -19 -29 -41 -18 -40 -19 -41
-32 -20 -9 13 -25 21 -43 21 -34 0 -34 1 -14 40 9 18 11 31 5 35 -6 3 -19 -15
-30 -40z"/>
<path d="M363 123 c2 -10 8 -26 12 -35 6 -15 2 -18 -24 -18 -20 0 -34 -7 -41
-21 -11 -20 -12 -20 -25 -2 -19 25 -28 11 -14 -21 15 -32 24 -33 45 -1 13 20
25 25 55 25 22 0 39 2 39 5 0 2 -7 23 -16 45 -16 39 -41 58 -31 23z"/>
</g>
</svg>
