<?xml version="1.0" encoding="UTF-8"?>
<svg version="1.1" xmlns="http://www.w3.org/2000/svg" width="66" height="66">
<path d="M0 0 C1.07121094 -0.00945648 2.14242188 -0.01891296 3.24609375 -0.02865601 C4.98052734 -0.01954697 4.98052734 -0.01954697 6.75 -0.01025391 C7.93722656 -0.01312408 9.12445312 -0.01599426 10.34765625 -0.01895142 C12.85937985 -0.02099417 15.37111928 -0.01544963 17.8828125 -0.00292969 C21.73473572 0.01311999 25.58560955 -0.00277228 29.4375 -0.02197266 C31.87500232 -0.01999026 34.31250399 -0.01614667 36.75 -0.01025391 C37.90628906 -0.0163266 39.06257813 -0.02239929 40.25390625 -0.02865601 C41.32511719 -0.01919952 42.39632812 -0.00974304 43.5 0 C44.91539063 0.00358017 44.91539063 0.00358017 46.359375 0.00723267 C48.75 0.38818359 48.75 0.38818359 50.5528717 1.65316772 C52.01927979 3.77845481 52.13504721 4.96731512 52.15405273 7.53662109 C52.16673691 8.36758301 52.17942108 9.19854492 52.19248962 10.0546875 C52.18955399 10.94849121 52.18661835 11.84229492 52.18359375 12.76318359 C52.1888356 13.68405762 52.19407745 14.60493164 52.19947815 15.55371094 C52.20590098 17.50047802 52.20455798 19.4472839 52.19604492 21.39404297 C52.18753144 24.37716527 52.21629783 27.35837541 52.24804688 30.34130859 C52.24965884 32.23193302 52.24908145 34.12256084 52.24609375 36.01318359 C52.26294472 37.35388916 52.26294472 37.35388916 52.28013611 38.72167969 C52.21103678 44.84247843 52.21103678 44.84247843 50.00317383 47.45581055 C47.537589 48.47608018 45.86455546 48.73510026 43.203125 48.68115234 C42.35878906 48.67148437 41.51445313 48.66181641 40.64453125 48.65185547 C39.77183594 48.62671875 38.89914063 48.60158203 38 48.57568359 C36.66775391 48.55538086 36.66775391 48.55538086 35.30859375 48.53466797 C33.12177422 48.49939669 30.93620034 48.45011112 28.75 48.38818359 C31.2912772 51.01488188 33.36994673 52.93958934 36.75 54.38818359 C36.255 55.37818359 36.255 55.37818359 35.75 56.38818359 C26.51 56.38818359 17.27 56.38818359 7.75 56.38818359 C7.255 54.90318359 7.255 54.90318359 6.75 53.38818359 C7.884375 52.93443359 9.01875 52.48068359 10.1875 52.01318359 C13.79721692 50.81722553 13.79721692 50.81722553 14.75 48.38818359 C14.19538086 48.40389404 13.64076172 48.41960449 13.06933594 48.43579102 C10.54632848 48.49831222 8.02348424 48.53722701 5.5 48.57568359 C4.62730469 48.60082031 3.75460937 48.62595703 2.85546875 48.65185547 C1.58896484 48.66635742 1.58896484 48.66635742 0.296875 48.68115234 C-0.47817383 48.69686279 -1.25322266 48.71257324 -2.05175781 48.72875977 C-5.10455374 48.25578661 -6.22983605 47.77934621 -8.25 45.38818359 C-8.84933678 42.26697833 -8.78592972 39.1826339 -8.74609375 36.01318359 C-8.74754898 35.09230957 -8.74900421 34.17143555 -8.75050354 33.22265625 C-8.74884367 31.27584672 -8.73727256 29.32902419 -8.71655273 27.38232422 C-8.68760822 24.3993364 -8.69593961 21.41812625 -8.70898438 18.43505859 C-8.70274674 16.54442494 -8.69435561 14.65379691 -8.68359375 12.76318359 C-8.68652939 11.86937988 -8.68946503 10.97557617 -8.69248962 10.0546875 C-8.67980545 9.22372559 -8.66712128 8.39276367 -8.65405273 7.53662109 C-8.64864975 6.80620605 -8.64324677 6.07579102 -8.63768005 5.32324219 C-7.65978455 0.4421938 -4.46500187 0.01129403 0 0 Z M-5.25 5.38818359 C-5.66854048 8.59243684 -5.66854048 8.59243684 -5.54296875 12.36474609 C-5.53872391 13.04999359 -5.53447906 13.73524109 -5.53010559 14.44125366 C-5.51329753 16.63229489 -5.47564405 18.82241991 -5.4375 21.01318359 C-5.42245579 22.49754532 -5.40876693 23.98192145 -5.39648438 25.46630859 C-5.3633879 29.10723192 -5.31159207 32.74761837 -5.25 36.38818359 C-4.59 36.38818359 -3.93 36.38818359 -3.25 36.38818359 C-3.25 26.15818359 -3.25 15.92818359 -3.25 5.38818359 C13.25 5.38818359 29.75 5.38818359 46.75 5.38818359 C46.75 15.61818359 46.75 25.84818359 46.75 36.38818359 C47.41 36.38818359 48.07 36.38818359 48.75 36.38818359 C48.8240719 32.0099645 48.87856375 27.63207577 48.91479492 23.25341797 C48.929896 21.76344451 48.95037858 20.27351559 48.97631836 18.78369141 C49.01264584 16.64393129 49.02971221 14.50475793 49.04296875 12.36474609 C49.06653442 10.43236084 49.06653442 10.43236084 49.09057617 8.4609375 C48.97818604 7.44692871 48.8657959 6.43291992 48.75 5.38818359 C45.5495069 3.25452153 44.72637262 3.13638201 41.05078125 3.12939453 C40.09969482 3.12309021 39.1486084 3.11678589 38.16870117 3.11029053 C36.63113159 3.11636322 36.63113159 3.11636322 35.0625 3.12255859 C34.00844971 3.12064514 32.95439941 3.11873169 31.8684082 3.11676025 C29.63915773 3.11539884 27.40989932 3.11909221 25.18066406 3.12744141 C21.76349116 3.13814135 18.346844 3.12754443 14.9296875 3.11474609 C12.76562384 3.1160677 10.6015605 3.1186301 8.4375 3.12255859 C7.41245361 3.11851013 6.38740723 3.11446167 5.33129883 3.11029053 C3.90466919 3.11974701 3.90466919 3.11974701 2.44921875 3.12939453 C1.19371216 3.13178131 1.19371216 3.13178131 -0.0871582 3.13421631 C-2.54483188 3.25693594 -2.54483188 3.25693594 -5.25 5.38818359 Z M-0.25 8.38818359 C-0.25 17.62818359 -0.25 26.86818359 -0.25 36.38818359 C14.27 36.38818359 28.79 36.38818359 43.75 36.38818359 C43.75 27.14818359 43.75 17.90818359 43.75 8.38818359 C29.23 8.38818359 14.71 8.38818359 -0.25 8.38818359 Z M-5.25 40.38818359 C-4.92 41.70818359 -4.59 43.02818359 -4.25 44.38818359 C2.02 44.38818359 8.29 44.38818359 14.75 44.38818359 C14.75 43.06818359 14.75 41.74818359 14.75 40.38818359 C8.15 40.38818359 1.55 40.38818359 -5.25 40.38818359 Z M16.75 40.38818359 C17.08 41.70818359 17.41 43.02818359 17.75 44.38818359 C18.74 44.05818359 19.73 43.72818359 20.75 43.38818359 C20.75 42.39818359 20.75 41.40818359 20.75 40.38818359 C19.43 40.38818359 18.11 40.38818359 16.75 40.38818359 Z M22.75 40.38818359 C22.75 41.70818359 22.75 43.02818359 22.75 44.38818359 C23.74 44.38818359 24.73 44.38818359 25.75 44.38818359 C25.75 43.06818359 25.75 41.74818359 25.75 40.38818359 C24.76 40.38818359 23.77 40.38818359 22.75 40.38818359 Z M28.75 40.38818359 C28.75 41.70818359 28.75 43.02818359 28.75 44.38818359 C35.02 44.38818359 41.29 44.38818359 47.75 44.38818359 C48.08 43.06818359 48.41 41.74818359 48.75 40.38818359 C42.15 40.38818359 35.55 40.38818359 28.75 40.38818359 Z M18.75 48.38818359 C18.09 50.03818359 17.43 51.68818359 16.75 53.38818359 C20.05 53.38818359 23.35 53.38818359 26.75 53.38818359 C26.09 51.73818359 25.43 50.08818359 24.75 48.38818359 C22.77 48.38818359 20.79 48.38818359 18.75 48.38818359 Z " fill="#000000" transform="translate(11.25,4.61181640625)"/>
<path d="M0 0 C2.73000184 1.2454388 5.34978482 2.58350568 8 4 C8 8.95 8 13.9 8 19 C-0.98785425 23.97975709 -0.98785425 23.97975709 -5.125 24.0625 C-8.93405091 22.65480727 -12.41703085 20.91503523 -16 19 C-16 14.05 -16 9.1 -16 4 C-5.26717557 -1.94656489 -5.26717557 -1.94656489 0 0 Z M-10 6 C-7.34271875 7.73745313 -6.10399645 8.00831972 -2.875 7.75 C0.10597798 7.23116835 0.10597798 7.23116835 2 5 C-2.79194459 2.26174595 -5.79996863 2.39997311 -10 6 Z M-13 9 C-13 11.31 -13 13.62 -13 16 C-9.535 17.485 -9.535 17.485 -6 19 C-6 16.36 -6 13.72 -6 11 C-8.31 10.34 -10.62 9.68 -13 9 Z M-2 11 C-2 13.64 -2 16.28 -2 19 C0.31 18.01 2.62 17.02 5 16 C5 13.69 5 11.38 5 9 C2.3534665 9 0.4191837 9.98139634 -2 11 Z " fill="#000000" transform="translate(37,16)"/>
<path d="M0 0 C2.86724686 0.57344937 3.8614515 0.8614515 6 3 C5.63318342 5.93453261 5.13562754 6.86437246 3 9 C2.01 9 1.02 9 0 9 C0.185625 8.2575 0.37125 7.515 0.5625 6.75 C0.99203108 4.05009037 0.85122974 2.55368923 0 0 Z " fill="#000000" transform="translate(47,23)"/>
<path d="M0 0 C0.99 0 1.98 0 3 0 C2.814375 0.7425 2.62875 1.485 2.4375 2.25 C2.00796892 4.94990963 2.14877026 6.44631077 3 9 C0.13275314 8.42655063 -0.8614515 8.1385485 -3 6 C-2.63318342 3.06546739 -2.13562754 2.13562754 0 0 Z " fill="#000000" transform="translate(16,23)"/>
</svg>
