<?xml version="1.0" standalone="no"?>
<!DOCTYPE svg PUBLIC "-//W3C//DTD SVG 20010904//EN"
 "http://www.w3.org/TR/2001/REC-SVG-20010904/DTD/svg10.dtd">
<svg version="1.0" xmlns="http://www.w3.org/2000/svg"
 width="50.000000pt" height="50.000000pt" viewBox="0 0 50.000000 50.000000"
 preserveAspectRatio="xMidYMid meet">

<g transform="translate(0.000000,50.000000) scale(0.100000,-0.100000)"
fill="#000000" stroke="none">
<path d="M146 464 c-30 -30 -18 -66 28 -84 l29 -11 -28 -29 c-19 -20 -29 -43
-32 -74 -6 -47 -25 -60 -50 -35 -16 16 -61 3 -68 -21 -9 -28 3 -58 26 -65 29
-10 58 4 65 30 9 35 29 37 60 4 15 -16 34 -29 41 -29 20 0 15 -28 -6 -35 -39
-12 -39 -78 0 -90 49 -16 89 37 55 74 -20 22 -21 41 0 41 9 0 31 7 50 16 40
19 64 7 64 -32 0 -46 52 -70 84 -38 35 35 5 90 -45 80 -34 -7 -60 20 -49 49
13 31 11 67 -4 97 -13 24 -12 29 1 40 9 7 26 11 38 10 45 -6 72 50 39 82 -32
33 -88 6 -82 -39 1 -12 -3 -29 -10 -38 -11 -13 -16 -13 -43 0 -17 8 -44 13
-60 11 -33 -5 -48 7 -30 25 26 26 0 77 -39 77 -10 0 -26 -7 -34 -16z m59 -34
c0 -18 -6 -26 -23 -28 -13 -2 -25 3 -28 12 -10 26 4 48 28 44 17 -2 23 -10 23
-28z m230 -20 c0 -18 -6 -26 -23 -28 -24 -4 -38 18 -28 44 3 9 15 14 28 12 17
-2 23 -10 23 -28z m-126 -64 c44 -23 64 -84 41 -127 -11 -20 -27 -24 -47 -11
-10 6 -10 15 -1 38 24 64 -18 113 -72 84 -18 -10 -21 -18 -18 -48 3 -21 8 -44
12 -54 5 -12 1 -18 -15 -23 -42 -14 -64 51 -35 104 26 47 84 63 135 37z m-35
-32 c19 -7 20 -26 4 -72 -12 -31 -11 -35 12 -52 l25 -18 -28 -7 c-15 -4 -39
-4 -54 0 l-28 7 25 18 c23 17 23 20 11 58 -20 58 -8 82 33 66z m-179 -124 c0
-18 -6 -26 -23 -28 -13 -2 -25 3 -28 12 -10 26 4 48 28 44 17 -2 23 -10 23
-28z m360 -70 c0 -18 -6 -26 -23 -28 -13 -2 -25 3 -28 12 -10 26 4 48 28 44
17 -2 23 -10 23 -28z m-200 -50 c0 -18 -6 -26 -23 -28 -24 -4 -38 18 -28 44 3
9 15 14 28 12 17 -2 23 -10 23 -28z"/>
</g>
</svg>
