<?xml version="1.0" standalone="no"?>
<!DOCTYPE svg PUBLIC "-//W3C//DTD SVG 20010904//EN"
 "http://www.w3.org/TR/2001/REC-SVG-20010904/DTD/svg10.dtd">
<svg version="1.0" xmlns="http://www.w3.org/2000/svg"
 width="50.000000pt" height="50.000000pt" viewBox="0 0 50.000000 50.000000"
 preserveAspectRatio="xMidYMid meet">

<g transform="translate(0.000000,50.000000) scale(0.100000,-0.100000)"
fill="#000000" stroke="none">
<path d="M50 445 l-44 -45 82 -83 82 -82 -65 -65 c-45 -45 -69 -77 -76 -104
-6 -21 -8 -40 -6 -43 3 -2 22 0 43 6 31 8 77 49 228 200 170 170 188 191 182
215 -4 16 -15 28 -32 32 -22 6 -36 -3 -103 -70 l-76 -76 -80 80 c-44 44 -82
80 -85 80 -3 0 -26 -20 -50 -45z m60 0 c0 -8 7 -15 16 -15 11 0 14 -6 9 -21
-6 -18 -4 -20 14 -14 15 5 21 2 21 -9 0 -9 7 -16 16 -16 11 0 14 -6 9 -21 -6
-18 -4 -20 14 -14 17 5 21 2 21 -18 0 -13 -10 -33 -23 -45 l-23 -22 -74 75
-74 75 29 30 c32 33 45 38 45 15z m315 -25 c19 -21 17 -23 -153 -193 l-172
-172 -22 23 -23 22 170 170 c93 94 173 170 176 170 3 0 14 -9 24 -20z"/>
<path d="M327 243 c-12 -11 -8 -23 9 -23 11 0 14 -6 9 -21 -6 -18 -4 -20 14
-14 15 5 21 2 21 -9 0 -9 7 -16 16 -16 11 0 14 -6 9 -21 -6 -18 -4 -20 14 -14
15 5 21 2 21 -9 0 -9 6 -16 12 -16 7 0 -2 -15 -20 -32 l-32 -33 -70 70 c-38
38 -73 66 -77 62 -4 -4 28 -42 70 -85 l77 -77 47 48 48 47 -75 75 c-75 76 -81
80 -93 68z"/>
</g>
</svg>
