<?xml version="1.0" standalone="no"?>
<!DOCTYPE svg PUBLIC "-//W3C//DTD SVG 20010904//EN"
 "http://www.w3.org/TR/2001/REC-SVG-20010904/DTD/svg10.dtd">
<svg version="1.0" xmlns="http://www.w3.org/2000/svg"
 width="64.000000pt" height="64.000000pt" viewBox="0 0 64.000000 64.000000"
 preserveAspectRatio="xMidYMid meet">

<g transform="translate(0.000000,64.000000) scale(0.100000,-0.100000)"
fill="#000000" stroke="none">
<path d="M169 571 c-30 -31 -38 -68 -17 -89 10 -10 -2 -26 -51 -76 -54 -55
-63 -68 -57 -90 4 -16 16 -28 32 -32 22 -6 35 3 90 57 50 49 66 61 76 51 33
-33 118 18 118 71 0 30 -109 137 -140 137 -12 0 -35 -13 -51 -29z m107 -55
c48 -48 52 -57 28 -80 -23 -24 -32 -20 -80 28 -48 48 -52 57 -28 80 23 24 32
20 80 -28z m-76 -84 c0 -14 -109 -116 -117 -109 -4 4 18 32 47 62 52 52 70 65
70 47z"/>
<path d="M344 549 c-13 -21 13 -28 111 -31 l100 -3 3 -57 3 -57 -108 -3 c-88
-2 -108 -6 -108 -18 0 -12 20 -16 108 -18 l107 -3 0 -59 0 -60 -160 0 -159 0
-3 58 c-2 43 -7 57 -18 57 -12 0 -15 -23 -18 -137 -4 -186 -13 -178 198 -178
217 0 200 -22 200 260 0 274 8 260 -144 260 -65 0 -107 -4 -112 -11z m214
-406 l-3 -58 -155 0 -155 0 -3 58 -3 57 161 0 161 0 -3 -57z"/>
<path d="M384 167 c-9 -25 0 -62 16 -62 10 0 15 10 15 34 0 36 -21 54 -31 28z"/>
<path d="M444 167 c-9 -25 0 -62 16 -62 10 0 15 10 15 34 0 36 -21 54 -31 28z"/>
<path d="M504 167 c-9 -25 0 -62 16 -62 10 0 15 10 15 34 0 36 -21 54 -31 28z"/>
<path d="M384 487 c-9 -25 0 -62 16 -62 10 0 15 10 15 34 0 36 -21 54 -31 28z"/>
<path d="M444 487 c-9 -25 0 -62 16 -62 10 0 15 10 15 34 0 36 -21 54 -31 28z"/>
<path d="M504 487 c-9 -25 0 -62 16 -62 10 0 15 10 15 34 0 36 -21 54 -31 28z"/>
<path d="M384 327 c-9 -25 0 -62 16 -62 10 0 15 10 15 34 0 36 -21 54 -31 28z"/>
<path d="M444 327 c-9 -25 0 -62 16 -62 10 0 15 10 15 34 0 36 -21 54 -31 28z"/>
<path d="M504 327 c-9 -25 0 -62 16 -62 10 0 15 10 15 34 0 36 -21 54 -31 28z"/>
</g>
</svg>
